<svg width="40" height="40" viewBox="0 0 64 71" fill="none" xmlns="http://www.w3.org/2000/svg">
<path d="M58.25 5.75L53 0.5L47.75 5.75L42.5 0.5L37.25 5.75L32 0.5L26.75 5.75L21.5 0.5L16.25 5.75L11 0.5V49.5H0.5V60C0.5 65.81 5.19 70.5 11 70.5H53C58.81 70.5 63.5 65.81 63.5 60V0.5L58.25 5.75ZM42.5 63.5H11C9.075 63.5 7.5 61.925 7.5 60V56.5H42.5V63.5ZM56.5 60C56.5 61.925 54.925 63.5 53 63.5C51.075 63.5 49.5 61.925 49.5 60V49.5H18V11H56.5V60Z" fill="#B299D1"/>
<path d="M42.5 18H21.5V25H42.5V18Z" fill="#B299D1"/>
<path d="M53 18H46V25H53V18Z" fill="#B299D1"/>
<path d="M42.5 28.5H21.5V35.5H42.5V28.5Z" fill="#B299D1"/>
<path d="M53 28.5H46V35.5H53V28.5Z" fill="#B299D1"/>
</svg>
