<svg xmlns="http://www.w3.org/2000/svg" width="157" viewBox="0 0 117.75 117.75" height="157" version="1.0"><defs>
<clipPath id="a"><path d="M 0 0 L 117.5 0 L 117.5 117.5 L 0 117.5 Z M 0 0"/></clipPath><clipPath id="b">
<path d="M 32.882812 12.277344 L 85.382812 12.277344 L 85.382812 116.035156 L 32.882812 116.035156 Z M 32.882812 12.277344"/>
</clipPath></defs><g clip-path="url(#a)"><path fill="#FFF" d="M 0 0 L 117.75 0 L 117.75 124.5 L 0 124.5 Z M 0 0"/>
<path fill="#FFF" d="M 0 0 L 117.75 0 L 117.75 117.75 L 0 117.75 Z M 0 0"/><path fill="#FFF" d="M 0 0 L 117.75 0 L 117.75 117.75 L 0 117.75 Z M 0 0"/>
<path fill="#FFF" d="M 117.8125 58.90625 C 117.8125 60.835938 117.71875 62.761719 117.527344 64.679688 C 117.339844 66.601562 117.058594 68.507812 116.679688 
70.398438 C 116.304688 72.289062 115.835938 74.160156 115.277344 76.007812 C 114.714844 77.851562 114.066406 79.667969 113.328125 81.449219 C 112.589844 83.230469 
111.765625 84.972656 110.855469 86.675781 C 109.949219 88.375 108.957031 90.027344 107.886719 91.632812 C 106.8125 93.238281 105.664062 94.785156 104.441406 96.277344 
C 103.21875 97.769531 101.921875 99.195312 100.558594 100.558594 C 99.195312 101.921875 97.769531 103.21875 96.277344 104.441406 C 94.785156 105.664062 93.238281 106.8125 
91.632812 107.886719 C 90.027344 108.957031 88.375 109.949219 86.675781 110.855469 C 84.972656 111.765625 83.230469 112.589844 81.449219 113.328125 C 79.667969 114.066406 
77.851562 114.714844 76.007812 115.277344 C 74.160156 115.835938 72.289062 116.304688 70.398438 116.679688 C 68.507812 117.058594 66.601562 117.339844 64.679688 117.527344 
C 62.761719 117.71875 60.835938 117.8125 58.90625 117.8125 C 56.976562 117.8125 55.050781 117.71875 53.132812 117.527344 C 51.210938 117.339844 49.304688 117.058594 47.414062 
116.679688 C 45.523438 116.304688 43.652344 115.835938 41.808594 115.277344 C 39.960938 114.714844 38.144531 114.066406 36.363281 113.328125 C 34.582031 112.589844 32.839844 111.765625 
31.136719 110.855469 C 29.4375 109.949219 27.785156 108.957031 26.179688 107.886719 C 24.574219 106.8125 23.027344 105.664062 21.535156 104.441406 C 20.046875 103.21875 18.617188 
101.921875 17.253906 100.558594 C 15.890625 99.195312 14.59375 97.769531 13.371094 96.277344 C 12.148438 94.785156 11 93.238281 9.925781 91.632812 C 8.855469 90.027344 7.863281 
88.375 6.957031 86.675781 C 6.046875 84.972656 5.222656 83.230469 4.484375 81.449219 C 3.746094 79.667969 3.097656 77.851562 2.535156 76.007812 C 1.976562 74.160156 1.507812 
72.289062 1.132812 70.398438 C 0.753906 68.507812 0.472656 66.601562 0.285156 64.679688 C 0.09375 62.761719 0 60.835938 0 58.90625 C 0 56.976562 0.09375 55.050781 0.285156 
53.132812 C 0.472656 51.210938 0.753906 49.304688 1.132812 47.414062 C 1.507812 45.523438 1.976562 43.652344 2.535156 41.808594 C 3.097656 39.960938 3.746094 38.144531 
4.484375 36.363281 C 5.222656 34.582031 6.046875 32.839844 6.957031 31.136719 C 7.863281 29.4375 8.855469 27.785156 9.925781 26.179688 C 11 24.574219 12.148438 23.027344 
13.371094 21.535156 C 14.59375 20.046875 15.890625 18.617188 17.253906 17.253906 C 18.617188 15.890625 20.046875 14.59375 21.535156 13.371094 C 23.027344 12.148438 24.574219 
11 26.179688 9.925781 C 27.785156 8.855469 29.4375 7.863281 31.136719 6.957031 C 32.839844 6.046875 34.582031 5.222656 36.363281 4.484375 C 38.144531 3.746094 39.960938 
3.097656 41.808594 2.535156 C 43.652344 1.976562 45.523438 1.507812 47.414062 1.132812 C 49.304688 0.753906 51.210938 0.472656 53.132812 0.285156 C 55.050781 0.09375 
56.976562 0 58.90625 0 C 60.835938 0 62.761719 0.09375 64.679688 0.285156 C 66.601562 0.472656 68.507812 0.753906 70.398438 1.132812 C 72.289062 1.507812 74.160156 
1.976562 76.007812 2.535156 C 77.851562 3.097656 79.667969 3.746094 81.449219 4.484375 C 83.230469 5.222656 84.972656 6.046875 86.675781 6.957031 C 88.375 7.863281 
90.027344 8.855469 91.632812 9.925781 C 93.238281 11 94.785156 12.148438 96.277344 13.371094 C 97.769531 14.59375 99.195312 15.890625 100.558594 17.253906 C 101.921875 
18.617188 103.21875 20.046875 104.441406 21.535156 C 105.664062 23.027344 106.8125 24.574219 107.886719 26.179688 C 108.957031 27.785156 109.949219 29.4375 110.855469
 31.136719 C 111.765625 32.839844 112.589844 34.582031 113.328125 36.363281 C 114.066406 38.144531 114.714844 39.960938 115.277344 41.808594 C 115.835938 43.652344 116.304688 
 45.523438 116.679688 47.414062 C 117.058594 49.304688 117.339844 51.210938 117.527344 53.132812 C 117.71875 55.050781 117.8125 56.976562 117.8125 58.90625 Z M 117.8125 58.90625"/></g>
 <g clip-path="url(#b)"><path fill="#FF914D" d="M 64.925781 132.347656 L 53.273438 132.347656 C 51.835938 132.347656 50.671875 131.183594 50.671875 129.746094 L 50.671875 86.316406 
 C 40.667969 85.058594 32.910156 76.675781 32.910156 66.550781 L 32.910156 20.722656 C 32.910156 16.066406 36.195312 12.277344 40.230469 12.277344 C 42.261719 12.277344 44.21875 
 13.257812 45.59375 14.960938 C 46.851562 16.523438 47.550781 18.570312 47.550781 20.722656 L 47.550781 43.214844 C 47.550781 45.128906 48.664062 46.457031 49.664062 46.457031 C 
 50.28125 46.457031 50.746094 45.992188 50.972656 45.714844 C 51.488281 45.078125 51.777344 44.167969 51.777344 43.214844 L 51.777344 20.71875 C 51.777344 16.066406 55.0625 12.277344
  59.101562 12.277344 C 61.132812 12.277344 63.082031 13.253906 64.457031 14.953125 C 65.71875 16.523438 66.417969 18.570312 66.417969 20.71875 L 66.417969 43.214844 C 66.417969 45.128906
   67.53125 46.457031 68.53125 46.457031 C 69.148438 46.457031 69.617188 45.992188 69.839844 45.714844 C 70.355469 45.078125 70.644531 44.167969 70.644531 43.214844 L 70.644531 20.722656 
   C 70.644531 16.066406 73.929688 12.277344 77.96875 12.277344 C 80.003906 12.277344 81.960938 13.257812 83.332031 14.964844 C 84.589844 16.523438 85.285156 18.570312 85.285156 20.722656
    L 85.285156 66.550781 C 85.285156 76.675781 77.53125 85.058594 67.527344 86.3125 L 67.527344 129.746094 C 67.527344 131.183594 66.363281 132.347656 64.925781 132.347656 Z M 55.878906 
    127.144531 L 62.320312 127.144531 L 62.320312 83.875 C 62.320312 82.4375 63.488281 81.273438 64.925781 81.273438 C 73.28125 81.273438 80.078125 74.667969 80.078125 66.554688 L 80.078125 
    20.722656 C 80.078125 19.769531 79.785156 18.859375 79.277344 18.230469 C 79.046875 17.945312 78.585938 17.484375 77.96875 17.484375 C 76.96875 17.484375 75.855469 18.816406 75.855469
     20.722656 L 75.855469 43.214844 C 75.855469 45.371094 75.15625 47.417969 73.890625 48.984375 C 72.519531 50.6875 70.566406 51.660156 68.53125 51.660156 C 64.496094 51.660156 61.210938 
     47.871094 61.210938 43.214844 L 61.210938 20.71875 C 61.210938 19.769531 60.914062 18.855469 60.40625 18.222656 C 60.183594 17.949219 59.714844 17.484375 59.101562 17.484375 C 
     58.101562 17.484375 56.984375 18.8125 56.984375 20.71875 L 56.984375 43.214844 C 56.984375 45.371094 56.289062 47.417969 55.023438 48.984375 C 53.652344 50.6875 51.699219 51.660156 
     49.664062 51.660156 C 45.628906 51.660156 42.34375 47.871094 42.34375 43.214844 L 42.34375 20.722656 C 42.34375 19.769531 42.050781 18.859375 41.539062 18.230469 C 41.261719 17.890625
      40.816406 17.484375 40.230469 17.484375 C 39.230469 17.484375 38.117188 18.816406 38.117188 20.722656 L 38.117188 66.550781 C 38.117188 74.667969 44.914062 81.269531 53.269531 
      81.269531 C 54.707031 81.269531 55.878906 82.4375 55.878906 83.871094 Z M 55.878906 127.144531"/></g></svg>
